@startuml

skinparam monochrome true
'skinparam style strictuml
'skinparam handwritten true
'skinparam linetype polyline

class User {
    - id : UUID
    - name : String
    - pass : String
}

class Group {
    - id : UUID
    - name : String
    - description : String
}

class Cluster {
    - id : UUID
    - private : Boolean
}

class Worker {
    - id : UUID
    - state : WorkerState
}

class Program {
    - id : UUID
    - state : ProgramState
    - createTime : Instant
    - finishTime : Instant
}

class Job {
    - id : UUID
    - state : JobState
    - createTime : Instant
    - finishTime : Instant
}
class ReduceJob {
    - id : UUID
}

class Task {
    - id : UUID
    - type : TaskType
    - state : JobState
    - createTime : Instant
    - startTime : Instant
    - finishTime : Instant
}
class ReduceTask

abstract class LibraryRoutine {
    - id : UUID
    - singleton : Boolean
    - private : Boolean
    - name : String
    - description : String
    - revision : Integer
}
class SingleLibraryRoutine
class MapLibraryRoutine
class CombineLibraryRoutine
class ReduceLibraryRoutine
class MasterLibraryRoutine
class StoreRoutine

class PartitionRoutine

class Tag {
    - label : String
    - description : String
}

abstract class Resource {
    - id : UUID
    - dataType : DataType
}
class MemoryResource {
    - value : String
}
class SharedResource {
    - value : Reference
}

class FormalParameter {
    - name : String
    - dataType : DataType
    - direction : Direction {IN, OUT}
}
note right of FormalParameter : DataType:\nRDL, Avro, Thrift, ProtoBuf, etc?


Task <|-- ReduceTask

SingleLibraryRoutine --|> LibraryRoutine
MapLibraryRoutine --|> LibraryRoutine
CombineLibraryRoutine --|> LibraryRoutine
ReduceLibraryRoutine --|> LibraryRoutine
MasterLibraryRoutine --|> LibraryRoutine

MemoryResource --|> Resource
SharedResource --|> Resource

Program *- Job
Program "0..1" -- "0..1" MasterLibraryRoutine : may represented by >
Job "1" -- "0..1" ReduceJob : extends by >
Job *- Task
Job "*" -- "0..1" MapLibraryRoutine : may have a >
Job "*" -- "0..1" CombineLibraryRoutine : may have a >
Job "*" -- "1" PartitionRoutine
Job "*" -- "1" StoreRoutine
ReduceJob *-- ReduceTask
Task "0..1" - "1" SingleLibraryRoutine : bound to >
ReduceTask "0..1" -- "1" ReduceLibraryRoutine : bound to >

User  "*" - "*"  Group : contains >
User *- Program : owner >
Group "*" - "*" Program : access >
User *-- LibraryRoutine : owner >
'User -- LibraryRoutine
'(User, LibraryRoutine) . ShortName

LibraryRoutine "*" -l- "*" Tag : classified by >
LibraryRoutine "1" - "0..1" LibraryRoutine : predecessor

LibraryRoutine "0..1" -- "*" FormalParameter : in\n{ordered} >
LibraryRoutine "0..1" -- "*" FormalParameter : out\n{ordered} >

Resource "*" -- "0..1" Task : in parameter\n{ordered} <
Resource "*" -- "0..1" Task : out parameter\n{ordered} <
Resource "*" -- "0..1" Job : result <
Resource "*" -- "0..1" Job : map\n in parameter\n{ordered} <
Resource "*" -- "0..1" Job : combine\n in parameter\n{ordered} <
Resource "*" -- "0..1" Program : master library\n in parameter\n{ordered} <
Resource "*" -- "0..1" Program : master library\n out parameter\n{ordered} <

SharedResource "*" -- "0..1" Program  : has <

Program "*" -- "0..1" Cluster : runs on >
Cluster *-- Worker : has >

@enduml